<?xml version="1.0" standalone="no"?>
<!DOCTYPE svg PUBLIC "-//W3C//DTD SVG 20010904//EN"
 "http://www.w3.org/TR/2001/REC-SVG-20010904/DTD/svg10.dtd">
<svg version="1.0" xmlns="http://www.w3.org/2000/svg"
 width="128.000000pt" height="128.000000pt" viewBox="0 0 128.000000 128.000000"
 preserveAspectRatio="xMidYMid meet">
<metadata>
Created by potrace 1.11, written by Peter Selinger 2001-2013
</metadata>
<g transform="translate(0.000000,128.000000) scale(0.100000,-0.100000)"
fill="#000000" stroke="none">
<path d="M475 1256 c-118 -32 -199 -79 -285 -166 -79 -79 -125 -154 -162 -262
-17 -50 -21 -87 -22 -183 0 -134 19 -212 76 -314 39 -69 42 -74 116 -147 113
-114 252 -174 417 -180 123 -4 200 12 312 67 169 81 316 275 341 449 4 25 7
88 6 140 -3 404 -405 704 -799 596z m168 -198 c18 -14 21 -35 32 -243 7 -131
17 -162 68 -215 55 -57 147 -170 147 -179 0 -19 -43 -61 -63 -61 -13 0 -56 30
-102 72 -44 39 -105 93 -135 120 l-55 49 0 77 c1 42 4 140 8 217 7 124 10 142
29 158 24 20 48 22 71 5z"/>
</g>
</svg>
